<svg width="109" height="36" viewBox="0 0 109 36" fill="none" xmlns="http://www.w3.org/2000/svg">
<path d="M21.3131 5.48197C21.3131 11.1006 16.1214 14.5674 16.1214 17.8292C16.1214 21.0911 21.1423 23.0209 21.1423 27.9393C21.1423 31.9526 18.2562 34.9924 12.0057 34.9924C5.25996 34.9924 0 29.9203 0 24.797C0 22.389 0.939278 18.666 5.77229 18.7173C9.51233 18.7514 10.093 21.8767 13.3036 21.8767C15.6603 21.8767 17.3169 17.7097 12.9791 14.1746C6.13093 8.60721 6.88235 0 14.8577 0C18.7002 0.0341556 21.3131 1.8444 21.3131 5.48197Z" fill="white"/>
<path d="M43.873 33.797V23.926C47.6302 23.926 47.6814 23.7723 47.6814 20.8861V14.2429C47.6814 11.3567 47.6302 11.203 43.873 11.203V1.3833H63.6833C74.6472 1.3833 78.1482 3.33017 78.1482 9.6148C78.1482 15.37 75.262 16.3093 70.0192 16.463V18.6831C75.6207 18.7856 78.7118 19.6053 78.7118 25.3264C78.7118 31.7647 75.0571 33.814 64.0932 33.814H43.873V33.797ZM57.5011 11.2201V16.2581H63.9395C66.7231 16.2581 67.8503 16.0531 67.8503 13.8843C67.8503 11.6641 66.467 11.203 63.5296 11.203H57.5011V11.2201ZM57.5011 18.8368V23.926H63.7858C66.8256 23.926 68.2601 23.5161 68.2601 21.2448C68.2601 19.2467 66.8768 18.8197 63.9395 18.8197H57.5011V18.8368Z" fill="white"/>
<path d="M32.3458 23.5847C25.8562 23.6701 22.7651 22.4405 22.7651 17.4879C22.7651 12.6379 25.8391 11.4766 32.3116 11.4766C38.4596 11.4766 41.5507 12.6379 41.5507 17.4879C41.5507 22.4747 38.4767 23.6701 32.3458 23.5847ZM32.2433 23.2944C34.2927 23.2944 35.1807 21.4158 35.1807 17.4538C35.1807 13.6967 34.2927 11.7327 32.2433 11.7327C30.1086 11.7327 29.1864 13.6454 29.1864 17.4879C29.1864 21.4842 30.0744 23.2944 32.2433 23.2944Z" fill="white"/>
<path d="M100.707 36.0002H82.5366V11.4082H88.5992V30.7232H100.707V36.0002Z" fill="white"/>
<path d="M108.461 6.16544V18.6152C108.461 23.2603 105.609 26.044 100.93 26.044C98.1289 26.044 95.8405 25.2584 94.5938 23.636C94.4401 23.414 94.3035 23.1066 94.3035 22.7651C94.3035 22.0136 94.8329 21.4501 95.6526 21.4501C96.0966 21.4501 96.3357 21.6038 96.6602 21.9283C97.702 22.97 99.0169 23.5336 100.861 23.5336C103.901 23.5336 105.729 21.7062 105.729 18.7689V17.4539H105.66C104.533 18.9909 102.706 19.8618 100.366 19.8618C96.2162 19.8618 93.9619 17.4197 93.9619 12.8599V6.18252C93.9619 5.24324 94.4913 4.67967 95.3452 4.67967C96.1991 4.67967 96.6944 5.24324 96.6944 6.18252V12.5867C96.6944 15.6949 98.1972 17.3172 101.032 17.3172C103.918 17.3172 105.746 15.3021 105.746 12.0061V6.16544C105.746 5.22616 106.275 4.6626 107.095 4.6626C107.949 4.6626 108.461 5.22616 108.461 6.16544Z" fill="white"/>
</svg>
